<svg width="256" height="256" viewBox="0 0 256 256" fill="none" xmlns="http://www.w3.org/2000/svg">
<path d="M210.277 29.9463C195.13 17.2364 177.244 8.20852 158.023 3.5707C138.801 -1.0671 118.767 -1.18871 99.4901 3.2154C80.2138 7.61953 62.2198 16.4296 46.9196 28.9547C31.6194 41.4798 19.4289 57.3792 11.3043 75.406L64.9843 99.5993C69.3716 89.8648 75.9544 81.2791 84.2166 74.5155C92.4787 67.752 102.195 62.9945 112.605 60.6163C123.014 58.2381 133.833 58.3038 144.212 60.8082C154.592 63.3126 164.25 68.1876 172.429 75.051L210.277 29.9463Z" fill="#78BB0E"/>
<path d="M11.2291 75.5732C-1.45374 103.822 -3.46632 135.711 5.56435 165.33C14.595 194.949 34.0566 220.29 60.3427 236.658C86.6287 253.025 117.957 259.309 148.522 254.344C179.086 249.38 206.815 233.504 226.569 209.658L181.228 172.095C170.56 184.972 155.587 193.545 139.082 196.226C122.577 198.907 105.659 195.514 91.465 186.675C77.2706 177.837 66.7613 164.152 61.8847 148.158C57.0082 132.164 58.095 114.944 64.9437 99.6895L11.2291 75.5732Z" fill="#0F1941"/>
<path d="M60.1839 204H67.0839V202.164H64.2039L65.4039 201C66.3639 200.076 67.0239 199.188 67.0239 198.012C67.0239 196.428 65.9079 195.3 63.8079 195.3C61.7319 195.3 60.4359 196.392 60.3519 198.54H62.5839C62.6919 197.52 63.0759 197.148 63.6879 197.148C64.2999 197.148 64.5999 197.532 64.5999 198.108C64.5999 198.828 64.0359 199.56 63.1839 200.472L60.1839 203.652V204ZM67.6253 204H74.5253V202.164H71.6453L72.8453 201C73.8053 200.076 74.4653 199.188 74.4653 198.012C74.4653 196.428 73.3493 195.3 71.2493 195.3C69.1733 195.3 67.8773 196.392 67.7933 198.54H70.0253C70.1333 197.52 70.5173 197.148 71.1293 197.148C71.7413 197.148 72.0413 197.532 72.0413 198.108C72.0413 198.828 71.4773 199.56 70.6253 200.472L67.6253 203.652V204Z" fill="white"/>
<path d="M226.267 210.022C237.038 197.117 245.162 182.218 250.175 166.173C255.188 150.129 256.992 133.255 255.484 116.513C253.975 99.7718 249.184 83.4915 241.384 68.6017C233.583 53.712 222.927 40.5044 210.022 29.7331L172.292 74.9359C179.26 80.7524 185.015 87.8845 189.227 95.9249C193.439 103.965 196.027 112.757 196.841 121.797C197.656 130.837 196.682 139.95 193.975 148.614C191.268 157.278 186.881 165.323 181.064 172.292L226.267 210.022Z" fill="#FFB511"/>
<path d="M210.277 29.9463C187.459 10.8002 158.679 0.211053 128.894 0.00310716L128.483 58.8817C144.567 58.994 160.108 64.7121 172.429 75.051L210.277 29.9463Z" fill="#E74536"/>
<path d="M158.826 42H161.19V40.356H162.294V38.664H161.19V33.42H158.226L154.65 39.432V40.356H158.826V42ZM156.966 38.664L158.886 35.268V38.664H156.966Z" fill="white"/>
<path d="M224.123 132H226.583V123.42H224.459L222.491 124.8V126.852L224.123 125.844V132ZM227.606 132H234.506V130.164H231.626L232.826 129C233.786 128.076 234.446 127.188 234.446 126.012C234.446 124.428 233.33 123.3 231.23 123.3C229.154 123.3 227.858 124.392 227.774 126.54H230.006C230.114 125.52 230.498 125.148 231.11 125.148C231.722 125.148 232.022 125.532 232.022 126.108C232.022 126.828 231.458 127.56 230.606 128.472L227.606 131.652V132Z" fill="white"/>
<path d="M117.972 130H122.989V124.361H126.722V120.511H122.989V102.194H116.494L104.206 122.533V124.361H117.972V130ZM109.728 120.511L118.05 106.122V120.511H109.728ZM142.885 130H147.902V124.361H151.635V120.511H147.902V102.194H141.408L129.119 122.533V124.361H142.885V130ZM134.641 120.511L142.963 106.122V120.511H134.641Z" fill="#78BB0E"/>
<path opacity="0.5" d="M97.3202 153.135C99.6099 153.135 101.253 151.963 101.536 149.646H99.785C99.5964 151.007 98.6536 151.68 97.3202 151.68C95.5423 151.68 94.5052 150.401 94.5052 148.232V148.124C94.5052 145.969 95.6096 144.649 97.3067 144.649C98.694 144.649 99.4079 145.309 99.6099 146.589H101.428C101.213 144.326 99.5021 143.222 97.2933 143.222C94.613 143.222 92.6196 145.242 92.6196 148.138V148.246C92.6196 151.209 94.3032 153.135 97.3202 153.135ZM104.864 153.135C105.942 153.135 106.561 152.744 107.019 152.138V153H108.622V148.38C108.622 146.454 107.383 145.808 105.807 145.808C104.231 145.808 102.924 146.495 102.79 148.138H104.366C104.446 147.437 104.864 147.033 105.713 147.033C106.669 147.033 106.992 147.505 106.992 148.448V148.811H106.117C104.096 148.811 102.507 149.404 102.507 151.047C102.507 152.515 103.571 153.135 104.864 153.135ZM105.255 151.963C104.446 151.963 104.123 151.572 104.123 150.98C104.123 150.118 104.918 149.835 106.157 149.835H106.992V150.535C106.992 151.438 106.251 151.963 105.255 151.963ZM110.49 153H112.119V148.852C112.119 147.734 112.86 147.168 113.776 147.168C114.746 147.168 115.177 147.653 115.177 148.717V153H116.807V148.569C116.807 146.629 115.81 145.808 114.396 145.808C113.237 145.808 112.456 146.387 112.119 147.074V145.956H110.49V153ZM121.324 153.135C122.361 153.135 123.264 152.515 123.641 151.815V153H125.27V142.696H123.641V147.033C123.25 146.333 122.536 145.808 121.391 145.808C119.56 145.808 118.226 147.235 118.226 149.485V149.592C118.226 151.882 119.56 153.135 121.324 153.135ZM121.728 151.842C120.678 151.842 119.896 151.101 119.896 149.552V149.444C119.896 147.922 120.597 147.087 121.795 147.087C122.981 147.087 123.695 147.855 123.695 149.404V149.512C123.695 151.087 122.86 151.842 121.728 151.842ZM127.248 153H128.878V145.956H127.248V153ZM128.042 144.797C128.581 144.797 129.012 144.393 129.012 143.868C129.012 143.329 128.581 142.925 128.042 142.925C127.504 142.925 127.073 143.329 127.073 143.868C127.073 144.393 127.504 144.797 128.042 144.797ZM133.261 153.121C133.76 153.121 134.11 153.04 134.366 152.946V151.653C134.137 151.747 133.894 151.788 133.571 151.788C133.059 151.788 132.763 151.505 132.763 150.885V147.181H134.312V145.956H132.763V144.407H131.133V145.956H130.191V147.181H131.133V151.034C131.133 152.367 131.861 153.121 133.261 153.121ZM138.193 153.135C139.338 153.135 140.079 152.582 140.429 151.896V153H142.059V145.956H140.429V150.145C140.429 151.263 139.661 151.828 138.786 151.828C137.843 151.828 137.398 151.343 137.398 150.279V145.956H135.769V150.468C135.769 152.34 136.806 153.135 138.193 153.135ZM143.991 153H145.621V149.336C145.621 147.841 146.483 147.383 147.91 147.37V145.848C146.725 145.862 146.065 146.387 145.621 147.276V145.956H143.991V153ZM152.31 153.135C154.115 153.135 155.314 152.327 155.543 150.845H153.967C153.846 151.532 153.334 151.922 152.351 151.922C151.139 151.922 150.465 151.168 150.411 149.835H155.57V149.363C155.57 146.845 153.994 145.808 152.243 145.808C150.236 145.808 148.741 147.262 148.741 149.444V149.552C148.741 151.774 150.236 153.135 152.31 153.135ZM150.438 148.744C150.6 147.653 151.26 146.993 152.243 146.993C153.253 146.993 153.873 147.532 153.954 148.744H150.438ZM159.502 153.135C161.307 153.135 162.317 152.313 162.317 150.885C162.317 149.39 161.334 148.986 159.677 148.73C158.56 148.542 158.223 148.34 158.223 147.828C158.223 147.33 158.64 146.993 159.341 146.993C160.095 146.993 160.459 147.289 160.593 147.936H162.102C161.927 146.346 160.782 145.808 159.341 145.808C158.021 145.808 156.701 146.508 156.701 147.922C156.701 149.242 157.388 149.767 159.246 150.064C160.284 150.239 160.755 150.454 160.755 151.034C160.755 151.626 160.364 151.936 159.489 151.936C158.533 151.936 158.169 151.518 158.088 150.805H156.553C156.62 152.3 157.684 153.135 159.502 153.135Z" fill="#0F1941"/>
<path d="M72.669 50.144C74.853 50.144 76.173 48.944 76.173 47.132C76.173 45.332 74.889 44.384 73.329 44.384C72.273 44.384 71.709 44.792 71.325 45.38C71.373 43.928 71.889 43.112 72.825 43.112C73.437 43.112 73.653 43.412 73.737 43.832H75.993C75.813 42.152 74.673 41.3 72.741 41.3C70.557 41.3 68.889 42.92 68.889 45.716V45.944C68.889 48.392 69.933 50.144 72.669 50.144ZM72.645 48.404C71.937 48.404 71.481 47.888 71.481 47.132C71.481 46.448 71.937 45.92 72.645 45.92C73.353 45.92 73.785 46.436 73.785 47.156C73.785 47.888 73.329 48.404 72.645 48.404Z" fill="white"/>
</svg>
