<svg width="256" height="256" viewBox="0 0 256 256" fill="none" xmlns="http://www.w3.org/2000/svg">
<path d="M128 -5.59506e-06C109.836 -4.8011e-06 91.8806 3.86576 75.3262 11.3404C58.7717 18.815 43.9976 29.7273 31.9858 43.3521C19.9739 56.9769 10.9993 73.0021 5.65849 90.3628C0.317631 107.724 -1.2672 126.022 1.00931 144.043C3.28583 162.063 9.37155 179.393 18.8621 194.88C28.3526 210.367 41.0305 223.657 56.0533 233.866C71.0762 244.076 88.0998 250.971 105.993 254.094C123.886 257.217 142.239 256.496 159.832 251.979L145.189 194.948C135.689 197.388 125.779 197.777 116.116 196.091C106.454 194.404 97.2611 190.681 89.1488 185.168C81.0365 179.655 74.1904 172.478 69.0655 164.115C63.9406 155.752 60.6543 146.394 59.425 136.663C58.1957 126.932 59.0515 117.051 61.9356 107.676C64.8196 98.3011 69.6659 89.6475 76.1523 82.2901C82.6387 74.9327 90.6167 69.0401 99.5561 65.0038C108.496 60.9675 118.192 58.88 128 58.88L128 -5.59506e-06Z" fill="#78BB0E"/>
<path d="M31.387 140H33.883L36.859 131.672V131.42H30.331V133.412H33.787L31.387 140Z" fill="white"/>
<path d="M158.966 252.198C181.871 246.487 202.75 234.553 219.296 217.716C235.842 200.879 247.409 179.795 252.719 156.794C258.03 133.793 256.876 109.771 249.385 87.385C241.895 64.9988 228.36 45.12 210.277 29.9463L172.429 75.051C182.194 83.2448 189.503 93.9794 193.548 106.068C197.593 118.156 198.216 131.128 195.348 143.549C192.481 155.969 186.235 167.355 177.3 176.447C168.365 185.539 157.09 191.983 144.722 195.067L158.966 252.198Z" fill="#FFB511"/>
<path d="M210.277 29.9463C187.459 10.8002 158.679 0.211053 128.894 0.00310716L128.483 58.8817C144.567 58.994 160.108 64.7121 172.429 75.051L210.277 29.9463Z" fill="#FFB511"/>
<path d="M221.899 144.144C224.071 144.144 225.379 142.944 225.379 141.12C225.379 139.26 224.347 138.204 222.775 138.204C221.707 138.204 221.095 138.648 220.771 139.116L220.819 137.22H224.827V135.42H219.043L218.863 140.472H220.327C220.615 140.136 221.047 139.86 221.743 139.86C222.487 139.86 222.907 140.316 222.907 141.084C222.907 141.768 222.583 142.296 221.875 142.296C221.083 142.296 220.843 141.9 220.759 141.3H218.527C218.587 142.908 219.619 144.144 221.899 144.144Z" fill="white"/>
</svg>
