<svg width="344" height="107" viewBox="0 0 344 107" fill="none" xmlns="http://www.w3.org/2000/svg">
<path d="M332.058 100.803L4.00098 101.156" stroke="#2175D9" stroke-opacity="0.3" stroke-width="0.321112"/>
<path d="M299.451 72.8662H3.71094" stroke="#2175D9" stroke-opacity="0.3" stroke-width="0.321112"/>
<path d="M332.356 45.2857L4.29932 44.9746" stroke="#2175D9" stroke-opacity="0.3" stroke-width="0.321112"/>
<path d="M332.656 17H4.00098" stroke="#2175D9" stroke-opacity="0.3" stroke-width="0.321112"/>
<path d="M4.32177 100.924L4.32178 17" stroke="#2175D9" stroke-opacity="0.3" stroke-width="0.321112"/>
<path d="M37.4316 100.924L37.4316 17" stroke="#2175D9" stroke-opacity="0.3" stroke-width="0.321112"/>
<path d="M70.542 100.924L70.542 17" stroke="#2175D9" stroke-opacity="0.3" stroke-width="0.321112"/>
<path d="M103.652 100.924L103.652 17" stroke="#2175D9" stroke-opacity="0.3" stroke-width="0.321112"/>
<path d="M136.763 100.924L136.763 17" stroke="#2175D9" stroke-opacity="0.3" stroke-width="0.321112"/>
<path d="M169.873 100.924L169.873 17" stroke="#2175D9" stroke-opacity="0.3" stroke-width="0.321112"/>
<path d="M202.984 100.924L202.984 17" stroke="#2175D9" stroke-opacity="0.3" stroke-width="0.321112"/>
<path d="M236.094 100.924L236.094 17" stroke="#2175D9" stroke-opacity="0.3" stroke-width="0.321112"/>
<path d="M269.205 100.924L269.205 17" stroke="#2175D9" stroke-opacity="0.3" stroke-width="0.321112"/>
<path d="M302.315 100.924L302.315 17" stroke="#2175D9" stroke-opacity="0.3" stroke-width="0.321112"/>
<path d="M332.422 100.924L332.422 17" stroke="#2175D9" stroke-opacity="0.3" stroke-width="0.321112"/>
<path d="M4.00098 101.156L29.2305 73.6689C34.1156 68.3466 41.5677 66.2045 48.5334 68.1202L64.9335 72.6304C68.2852 73.5522 71.8239 73.55 75.1745 72.624L95.3405 67.0511C100.105 65.7343 105.194 66.2994 109.554 68.6296L121.111 74.8065C129.883 79.4943 140.78 76.736 146.265 68.44L157.528 51.4043C163.88 41.7954 177.189 39.8711 186.004 47.2872L191.551 51.9543C197.655 57.0902 206.293 57.9331 213.275 54.0742L226.286 46.8826C231.409 44.0509 237.542 43.702 242.954 45.9343L257.681 52.0097C263.662 54.4768 270.481 53.7776 275.837 50.1484L286.535 42.8984C294.575 37.4503 305.412 38.8374 311.821 46.1348L332.356 69.5194" stroke="#78BB0E" stroke-width="1.28445"/>
<path d="M29.2305 73.6689L4.00098 101.156L332.356 98.871V76.7782C332.356 72.0995 330.653 67.5807 327.566 64.0651L311.821 46.1348C305.412 38.8374 294.575 37.4503 286.535 42.8984L275.837 50.1484C270.481 53.7776 263.662 54.4768 257.681 52.0097L242.954 45.9343C237.542 43.702 231.409 44.0509 226.286 46.8826L213.275 54.0742C206.293 57.9331 197.655 57.0902 191.551 51.9543L186.004 47.2872C177.189 39.8711 163.88 41.7954 157.528 51.4043L146.265 68.44C140.78 76.736 129.883 79.4943 121.111 74.8065L109.554 68.6296C105.194 66.2994 100.105 65.7343 95.3405 67.0511L75.1745 72.624C71.8239 73.55 68.2852 73.5522 64.9335 72.6304L48.5334 68.1202C41.5677 66.2045 34.1156 68.3466 29.2305 73.6689Z" fill="url(#paint0_linear_274_2499)" fill-opacity="0.5"/>
<path d="M4.00098 46.9004L25.9915 63.2262C32.6724 68.1862 41.7826 68.2967 48.582 63.5004L53.0399 60.3557C62.2158 53.883 74.9605 56.5972 80.7028 66.2471L91.2123 83.9084C97.2733 94.0941 111.007 96.4437 120.109 88.8523L131.127 79.6638C134.651 76.7247 139.109 75.1399 143.697 75.1949L161.949 75.4134C166.776 75.4711 171.406 77.3391 174.922 80.6475L187.534 92.5157C195.329 99.8514 207.61 99.4262 214.88 91.5689L234.392 70.4788L253.261 50.5132C260.862 42.4709 273.659 42.4689 281.262 50.5088L290.863 60.6606C296.658 66.7886 305.765 68.435 313.339 64.7239L332.356 55.4056" stroke="#2175D9" stroke-width="1.28445"/>
<path d="M53.0399 61.5244L48.582 64.6691C41.7826 69.4654 32.6724 69.3549 25.9915 64.3949L20.5942 60.388L4.00098 48.0691V101.567H332.356V55.2512L321.143 62.3666L313.488 66.2478L313.14 66.4066C305.644 69.8305 296.8 68.1073 291.137 62.1194L281.262 51.6775C273.659 43.6376 260.862 43.6396 253.261 51.6819L234.392 71.6475L214.88 92.7376C207.61 100.595 195.329 101.02 187.534 93.6844L174.922 81.8162C171.406 78.5078 166.776 76.6399 161.949 76.5821L143.697 76.3636C139.109 76.3086 134.651 77.8934 131.127 80.8325L120.109 90.021C111.007 97.6124 97.2733 95.2628 91.2123 85.0771L80.7028 67.4158C74.9605 57.7659 62.2158 55.0517 53.0399 61.5244Z" fill="url(#paint1_linear_274_2499)" fill-opacity="0.4"/>
<circle cx="176.5" cy="42.5" r="3.01833" fill="#78BB0E" stroke="#4B6B17" stroke-width="0.963336"/>
<circle cx="174.681" cy="80.1104" r="3.01833" fill="#2175D9" stroke="#0C3464" stroke-width="0.963336"/>
<path d="M4.35355 0.646447C4.15829 0.451184 3.84171 0.451184 3.64645 0.646447L0.464466 3.82843C0.269204 4.02369 0.269204 4.34027 0.464466 4.53553C0.659728 4.7308 0.976311 4.7308 1.17157 4.53553L4 1.70711L6.82843 4.53553C7.02369 4.7308 7.34027 4.7308 7.53553 4.53553C7.7308 4.34027 7.7308 4.02369 7.53553 3.82843L4.35355 0.646447ZM4.5 101L4.5 1H3.5L3.5 101H4.5Z" fill="#BCD6F4"/>
<path d="M323.702 90.049C323.94 90.049 324.08 90.014 324.199 89.972V89.482C324.073 89.531 323.933 89.559 323.751 89.559C323.457 89.559 323.296 89.384 323.296 89.027V86.829H324.15V86.339H323.296V85.506H322.715V86.339H322.19V86.829H322.715V89.083C322.715 89.657 323.037 90.049 323.702 90.049ZM326.575 90.063C327.401 90.063 328.01 89.678 328.136 88.943H327.555C327.478 89.37 327.149 89.58 326.582 89.58C325.833 89.58 325.434 89.118 325.406 88.285H328.164V88.096C328.164 86.787 327.366 86.276 326.519 86.276C325.511 86.276 324.804 87.046 324.804 88.152V88.208C324.804 89.335 325.539 90.063 326.575 90.063ZM325.427 87.816C325.525 87.165 325.924 86.759 326.519 86.759C327.121 86.759 327.513 87.06 327.569 87.816H325.427ZM329.056 90H329.637V87.76C329.637 87.102 330.127 86.78 330.603 86.78C331.107 86.78 331.38 87.046 331.38 87.69V90H331.961V87.76C331.961 87.102 332.451 86.78 332.927 86.78C333.431 86.78 333.704 87.046 333.704 87.69V90H334.285V87.732C334.285 86.668 333.711 86.276 333.053 86.276C332.598 86.276 332.052 86.486 331.8 86.962C331.611 86.472 331.198 86.276 330.729 86.276C330.204 86.276 329.805 86.556 329.637 86.899V86.339H329.056V90ZM335.427 91.274H336.008V89.398C336.218 89.762 336.645 90.063 337.247 90.063C338.255 90.063 338.913 89.293 338.913 88.173V88.117C338.913 86.976 338.206 86.276 337.247 86.276C336.715 86.276 336.218 86.598 336.008 86.955V86.339H335.427V91.274ZM337.191 89.58C336.477 89.58 335.987 89.139 335.987 88.201V88.145C335.987 87.207 336.505 86.759 337.184 86.759C337.8 86.759 338.311 87.221 338.311 88.145V88.201C338.311 89.09 337.919 89.58 337.191 89.58ZM340.95 90.063C341.839 90.063 342.294 89.615 342.294 88.95C342.294 88.173 341.762 88.005 341.006 87.865C340.334 87.746 340.152 87.613 340.152 87.284C340.152 86.969 340.425 86.759 340.845 86.759C341.307 86.759 341.531 86.934 341.615 87.333H342.175C342.077 86.542 341.51 86.276 340.852 86.276C340.278 86.276 339.613 86.626 339.613 87.305C339.613 87.942 339.935 88.208 340.887 88.383C341.454 88.488 341.741 88.614 341.741 88.999C341.741 89.391 341.496 89.58 340.943 89.58C340.355 89.58 340.124 89.307 340.082 88.873H339.515C339.55 89.622 340.075 90.063 340.95 90.063Z" fill="#0F1941"/>
<path d="M8.588 11H9.169V8.991C9.169 8.088 9.638 7.857 10.373 7.822V7.276C9.715 7.297 9.4 7.584 9.169 7.997V7.339H8.588V11ZM12.6153 11.063C13.4413 11.063 14.0503 10.678 14.1763 9.943H13.5953C13.5183 10.37 13.1893 10.58 12.6223 10.58C11.8733 10.58 11.4743 10.118 11.4463 9.285H14.2043V9.096C14.2043 7.787 13.4063 7.276 12.5593 7.276C11.5513 7.276 10.8443 8.046 10.8443 9.152V9.208C10.8443 10.335 11.5793 11.063 12.6153 11.063ZM11.4673 8.816C11.5653 8.165 11.9643 7.759 12.5593 7.759C13.1613 7.759 13.5533 8.06 13.6093 8.816H11.4673ZM12.3003 6.709H12.7343L13.4623 5.68H12.7343L12.3003 6.709ZM16.047 11.063C16.586 11.063 16.915 10.881 17.188 10.538V11H17.769V8.585C17.769 7.563 17.132 7.276 16.432 7.276C15.725 7.276 15.06 7.584 14.983 8.417H15.564C15.62 7.969 15.9 7.759 16.404 7.759C16.964 7.759 17.188 8.004 17.188 8.585V8.851H16.663C15.725 8.851 14.829 9.138 14.829 9.985C14.829 10.734 15.368 11.063 16.047 11.063ZM16.103 10.601C15.592 10.601 15.41 10.363 15.41 9.985C15.41 9.446 15.949 9.264 16.684 9.264H17.188V9.719C17.188 10.286 16.719 10.601 16.103 10.601ZM20.4293 11.063C21.3113 11.063 21.9483 10.475 22.0253 9.684H21.4863C21.4233 10.279 20.9543 10.58 20.4363 10.58C19.7293 10.58 19.2393 10.104 19.2393 9.208V9.152C19.2393 8.291 19.7503 7.759 20.4153 7.759C20.9193 7.759 21.3393 7.976 21.4303 8.557H22.0043C21.8923 7.626 21.1783 7.276 20.4153 7.276C19.4353 7.276 18.6373 8.032 18.6373 9.152V9.208C18.6373 10.342 19.4073 11.063 20.4293 11.063ZM24.0155 11.049C24.2535 11.049 24.3935 11.014 24.5125 10.972V10.482C24.3865 10.531 24.2465 10.559 24.0645 10.559C23.7705 10.559 23.6095 10.384 23.6095 10.027V7.829H24.4635V7.339H23.6095V6.506H23.0285V7.339H22.5035V7.829H23.0285V10.083C23.0285 10.657 23.3505 11.049 24.0155 11.049ZM25.4047 11H25.9857V7.339H25.4047V11ZM25.6847 6.576C25.8947 6.576 26.0697 6.401 26.0697 6.191C26.0697 5.981 25.8947 5.806 25.6847 5.806C25.4747 5.806 25.2997 5.981 25.2997 6.191C25.2997 6.401 25.4747 6.576 25.6847 6.576ZM28.0919 11H28.8339L30.1499 7.339H29.5479L28.4769 10.412L27.3919 7.339H26.7619L28.0919 11ZM30.9282 11H31.5092V7.339H30.9282V11ZM31.2082 6.576C31.4182 6.576 31.5932 6.401 31.5932 6.191C31.5932 5.981 31.4182 5.806 31.2082 5.806C30.9982 5.806 30.8232 5.981 30.8232 6.191C30.8232 6.401 30.9982 6.576 31.2082 6.576ZM33.8114 11.049C34.0494 11.049 34.1894 11.014 34.3084 10.972V10.482C34.1824 10.531 34.0424 10.559 33.8604 10.559C33.5664 10.559 33.4054 10.384 33.4054 10.027V7.829H34.2594V7.339H33.4054V6.506H32.8244V7.339H32.2994V7.829H32.8244V10.083C32.8244 10.657 33.1464 11.049 33.8114 11.049ZM36.6846 11.063C37.5106 11.063 38.1196 10.678 38.2456 9.943H37.6646C37.5876 10.37 37.2586 10.58 36.6916 10.58C35.9426 10.58 35.5436 10.118 35.5156 9.285H38.2736V9.096C38.2736 7.787 37.4756 7.276 36.6286 7.276C35.6206 7.276 34.9136 8.046 34.9136 9.152V9.208C34.9136 10.335 35.6486 11.063 36.6846 11.063ZM35.5366 8.816C35.6346 8.165 36.0336 7.759 36.6286 7.759C37.2306 7.759 37.6226 8.06 37.6786 8.816H35.5366ZM36.3696 6.709H36.8036L37.5316 5.68H36.8036L36.3696 6.709Z" fill="#0F1941"/>
<path d="M343.353 100.838C343.548 100.643 343.548 100.327 343.353 100.131L340.171 96.9493C339.975 96.7541 339.659 96.7541 339.463 96.9493C339.268 97.1446 339.268 97.4612 339.463 97.6564L342.292 100.485L339.463 103.313C339.268 103.509 339.268 103.825 339.463 104.02C339.659 104.216 339.975 104.216 340.171 104.02L343.353 100.838ZM3.99902 100.985H342.999V99.9849H3.99902V100.985Z" fill="#BCD6F4"/>
<defs>
<linearGradient id="paint0_linear_274_2499" x1="163.173" y1="18.1687" x2="169.984" y2="101.007" gradientUnits="userSpaceOnUse">
<stop stop-color="#78BB0E"/>
<stop offset="0.671875" stop-color="#A6FF1A" stop-opacity="0"/>
</linearGradient>
<linearGradient id="paint1_linear_274_2499" x1="163.173" y1="-12.8052" x2="169.991" y2="106.897" gradientUnits="userSpaceOnUse">
<stop stop-color="#2175D9"/>
<stop offset="1" stop-color="#7CB8FF" stop-opacity="0"/>
</linearGradient>
</defs>
</svg>
