<svg width="24" height="24" viewBox="0 0 24 24" fill="none" xmlns="http://www.w3.org/2000/svg">
<g clip-path="url(#clip0_222_1824)">
<path d="M22.2 2.39995H19.2V1.79995C19.2 1.46875 18.9312 1.19995 18.6 1.19995C18.2688 1.19995 18 1.46875 18 1.79995V2.39995H6V1.79995C6 1.46875 5.7312 1.19995 5.4 1.19995C5.0688 1.19995 4.8 1.46875 4.8 1.79995V2.39995H1.8C0.8076 2.39995 0 3.20755 0 4.19995V21C0 21.9924 0.8076 22.8 1.8 22.8H22.2C23.1924 22.8 24 21.9924 24 21V4.19995C24 3.20755 23.1924 2.39995 22.2 2.39995ZM1.8 3.59995H4.8V5.39995C4.8 5.73115 5.0688 5.99995 5.4 5.99995C5.7312 5.99995 6 5.73115 6 5.39995V3.59995H18V5.39995C18 5.73115 18.2688 5.99995 18.6 5.99995C18.9312 5.99995 19.2 5.73115 19.2 5.39995V3.59995H22.2C22.5312 3.59995 22.8 3.86875 22.8 4.19995V7.19995H1.2V4.19995C1.2 3.86875 1.4688 3.59995 1.8 3.59995ZM22.2 21.6H1.8C1.4688 21.6 1.2 21.3312 1.2 21V8.39995H22.8V21C22.8 21.3312 22.5312 21.6 22.2 21.6Z" fill="black"/>
<path d="M8.99995 12H7.79995C7.46875 12 7.19995 11.7312 7.19995 11.4C7.19995 11.0688 7.46875 10.8 7.79995 10.8H8.99995C9.33115 10.8 9.59995 11.0688 9.59995 11.4C9.59995 11.7312 9.33115 12 8.99995 12Z" fill="black"/>
<path d="M12.6 12H11.4C11.0688 12 10.8 11.7312 10.8 11.4C10.8 11.0688 11.0688 10.8 11.4 10.8H12.6C12.9313 10.8 13.2001 11.0688 13.2001 11.4C13.2001 11.7312 12.9313 12 12.6 12Z" fill="black"/>
<path d="M16.1999 12H14.9999C14.6687 12 14.3999 11.7312 14.3999 11.4C14.3999 11.0688 14.6687 10.8 14.9999 10.8H16.1999C16.5311 10.8 16.7999 11.0688 16.7999 11.4C16.7999 11.7312 16.5311 12 16.1999 12Z" fill="black"/>
<path d="M19.8 12H18.6C18.2688 12 18 11.7312 18 11.4C18 11.0688 18.2688 10.8 18.6 10.8H19.8C20.1312 10.8 20.4 11.0688 20.4 11.4C20.4 11.7312 20.1312 12 19.8 12Z" fill="black"/>
<path d="M5.4001 14.4H4.2001C3.8689 14.4 3.6001 14.1312 3.6001 13.8C3.6001 13.4688 3.8689 13.2 4.2001 13.2H5.4001C5.7313 13.2 6.0001 13.4688 6.0001 13.8C6.0001 14.1312 5.7313 14.4 5.4001 14.4Z" fill="black"/>
<path d="M8.99995 14.4H7.79995C7.46875 14.4 7.19995 14.1312 7.19995 13.8C7.19995 13.4688 7.46875 13.2 7.79995 13.2H8.99995C9.33115 13.2 9.59995 13.4688 9.59995 13.8C9.59995 14.1312 9.33115 14.4 8.99995 14.4Z" fill="black"/>
<path d="M12.6 14.4H11.4C11.0688 14.4 10.8 14.1312 10.8 13.8C10.8 13.4688 11.0688 13.2 11.4 13.2H12.6C12.9313 13.2 13.2001 13.4688 13.2001 13.8C13.2001 14.1312 12.9313 14.4 12.6 14.4Z" fill="black"/>
<path d="M16.1999 14.4H14.9999C14.6687 14.4 14.3999 14.1312 14.3999 13.8C14.3999 13.4688 14.6687 13.2 14.9999 13.2H16.1999C16.5311 13.2 16.7999 13.4688 16.7999 13.8C16.7999 14.1312 16.5311 14.4 16.1999 14.4Z" fill="black"/>
<path d="M19.8 14.4H18.6C18.2688 14.4 18 14.1312 18 13.8C18 13.4688 18.2688 13.2 18.6 13.2H19.8C20.1312 13.2 20.4 13.4688 20.4 13.8C20.4 14.1312 20.1312 14.4 19.8 14.4Z" fill="black"/>
<path d="M5.4001 16.8H4.2001C3.8689 16.8 3.6001 16.5312 3.6001 16.2C3.6001 15.8688 3.8689 15.6 4.2001 15.6H5.4001C5.7313 15.6 6.0001 15.8688 6.0001 16.2C6.0001 16.5312 5.7313 16.8 5.4001 16.8Z" fill="black"/>
<path d="M8.99995 16.8H7.79995C7.46875 16.8 7.19995 16.5312 7.19995 16.2C7.19995 15.8688 7.46875 15.6 7.79995 15.6H8.99995C9.33115 15.6 9.59995 15.8688 9.59995 16.2C9.59995 16.5312 9.33115 16.8 8.99995 16.8Z" fill="black"/>
<path d="M12.6 16.8H11.4C11.0688 16.8 10.8 16.5312 10.8 16.2C10.8 15.8688 11.0688 15.6 11.4 15.6H12.6C12.9313 15.6 13.2001 15.8688 13.2001 16.2C13.2001 16.5312 12.9313 16.8 12.6 16.8Z" fill="black"/>
<path d="M16.1999 16.8H14.9999C14.6687 16.8 14.3999 16.5312 14.3999 16.2C14.3999 15.8688 14.6687 15.6 14.9999 15.6H16.1999C16.5311 15.6 16.7999 15.8688 16.7999 16.2C16.7999 16.5312 16.5311 16.8 16.1999 16.8Z" fill="black"/>
<path d="M19.8 16.8H18.6C18.2688 16.8 18 16.5312 18 16.2C18 15.8688 18.2688 15.6 18.6 15.6H19.8C20.1312 15.6 20.4 15.8688 20.4 16.2C20.4 16.5312 20.1312 16.8 19.8 16.8Z" fill="black"/>
<path d="M5.4001 19.2H4.2001C3.8689 19.2 3.6001 18.9312 3.6001 18.6C3.6001 18.2688 3.8689 18 4.2001 18H5.4001C5.7313 18 6.0001 18.2688 6.0001 18.6C6.0001 18.9312 5.7313 19.2 5.4001 19.2Z" fill="black"/>
<path d="M8.99995 19.2H7.79995C7.46875 19.2 7.19995 18.9312 7.19995 18.6C7.19995 18.2688 7.46875 18 7.79995 18H8.99995C9.33115 18 9.59995 18.2688 9.59995 18.6C9.59995 18.9312 9.33115 19.2 8.99995 19.2Z" fill="black"/>
<path d="M12.6 19.2H11.4C11.0688 19.2 10.8 18.9312 10.8 18.6C10.8 18.2688 11.0688 18 11.4 18H12.6C12.9313 18 13.2001 18.2688 13.2001 18.6C13.2001 18.9312 12.9313 19.2 12.6 19.2Z" fill="black"/>
<path d="M16.1999 19.2H14.9999C14.6687 19.2 14.3999 18.9312 14.3999 18.6C14.3999 18.2688 14.6687 18 14.9999 18H16.1999C16.5311 18 16.7999 18.2688 16.7999 18.6C16.7999 18.9312 16.5311 19.2 16.1999 19.2Z" fill="black"/>
<path d="M19.8 19.2H18.6C18.2688 19.2 18 18.9312 18 18.6C18 18.2688 18.2688 18 18.6 18H19.8C20.1312 18 20.4 18.2688 20.4 18.6C20.4 18.9312 20.1312 19.2 19.8 19.2Z" fill="black"/>
</g>
<defs>
<clipPath id="clip0_222_1824">
<rect width="24" height="24" fill="white"/>
</clipPath>
</defs>
</svg>
