<svg width="25" height="25" viewBox="0 0 25 25" fill="none" xmlns="http://www.w3.org/2000/svg">
<path d="M14.7463 15.1122V16.4224H18.5467C21.0451 16.4224 22.5425 14.9169 22.5425 12.9475C22.5425 11.3036 21.5578 9.95272 19.9709 9.30981C19.9871 5.68026 17.3748 3.05981 14.0464 3.05981C11.841 3.05981 10.2703 4.23983 9.29378 5.66398C7.44645 5.16756 5.11084 6.59985 5.07015 8.88664C3.23096 9.17147 2.0835 10.677 2.0835 12.5976C2.0835 14.7135 3.67041 16.4224 6.33968 16.4224H9.95296V15.1122H6.33154C4.40283 15.1122 3.39372 13.9973 3.39372 12.5976C3.39372 11.0432 4.37842 9.88761 6.10368 9.88761C6.21761 9.88761 6.2583 9.82251 6.2583 9.71672C6.2583 7.21834 8.0568 6.52661 9.73324 7.01489C9.83089 7.04744 9.88786 7.03117 9.93669 6.94165C10.7261 5.53377 11.9386 4.37004 14.0464 4.37004C16.7157 4.37004 18.563 6.48592 18.7013 8.91105C18.7257 9.27726 18.7013 9.71672 18.6688 10.0992C18.6606 10.205 18.7013 10.2701 18.799 10.2864C20.2801 10.6119 21.2323 11.5396 21.2323 12.9475C21.2323 14.2008 20.3208 15.1122 18.5386 15.1122H14.7463ZM12.3537 21.2564C12.5164 21.2564 12.6466 21.1913 12.8175 21.0367L15.5682 18.4651C15.6984 18.3512 15.7635 18.2128 15.7635 18.0338C15.7635 17.7083 15.5031 17.4641 15.1694 17.4641C15.0148 17.4641 14.852 17.5374 14.73 17.6594L13.493 18.8964L12.9478 19.4661L12.9966 18.2535V11.2711C12.9966 10.9293 12.7036 10.6363 12.3537 10.6363C12.0037 10.6363 11.7026 10.9293 11.7026 11.2711V18.2535L11.7515 19.4742L11.2062 18.8964L9.96924 17.6594C9.84717 17.5374 9.67627 17.4641 9.52165 17.4641C9.17985 17.4641 8.93571 17.7083 8.93571 18.0338C8.93571 18.2128 9.00081 18.3512 9.13102 18.4651L11.8817 21.0367C12.0526 21.1913 12.1828 21.2564 12.3537 21.2564Z" fill="#2175D9"/>
</svg>
