<svg width="23" height="24" viewBox="0 0 23 24" fill="none" xmlns="http://www.w3.org/2000/svg">
<path fill-rule="evenodd" clip-rule="evenodd" d="M14.2375 14.3171H14.9781L18.9531 18.3109C19.3375 18.6952 19.3375 19.3234 18.9531 19.7077C18.5688 20.0921 17.9406 20.0921 17.5563 19.7077L13.5719 15.7234V14.9827L13.3188 14.7202C12.0063 15.8452 10.2156 16.4265 8.3125 16.1077C5.70625 15.6671 3.625 13.4921 3.30625 10.8671C2.81875 6.90149 6.15625 3.56399 10.1219 4.05149C12.7469 4.37024 14.9219 6.45149 15.3625 9.05774C15.6813 10.9609 15.1 12.7515 13.975 14.064L14.2375 14.3171ZM5.13428 10.0983C5.13428 12.4327 7.01865 14.3171 9.35303 14.3171C11.6874 14.3171 13.5718 12.4327 13.5718 10.0983C13.5718 7.76396 11.6874 5.87959 9.35303 5.87959C7.01865 5.87959 5.13428 7.76396 5.13428 10.0983Z" fill="#0F1941"/>
</svg>
