<svg width="24" height="21" viewBox="0 0 24 21" fill="none" xmlns="http://www.w3.org/2000/svg">
<path d="M22.2 3.6H16.8V1.8C16.8 0.8076 15.9924 0 15 0H9C8.0076 0 7.2 0.8076 7.2 1.8V3.6H1.8C0.8076 3.6 0 4.4076 0 5.4V18.6C0 19.5924 0.8076 20.4 1.8 20.4H22.2C23.1924 20.4 24 19.5924 24 18.6V5.4C24 4.4076 23.1924 3.6 22.2 3.6ZM8.4 1.8C8.4 1.4688 8.6688 1.2 9 1.2H15C15.3312 1.2 15.6 1.4688 15.6 1.8V3.6H8.4V1.8ZM1.8 4.8H22.2C22.5312 4.8 22.8 5.0688 22.8 5.4V14.4H20.4V13.8C20.4 13.4688 20.1312 13.2 19.8 13.2H17.4C17.0688 13.2 16.8 13.4688 16.8 13.8V14.4H7.2V13.8C7.2 13.4688 6.9312 13.2 6.6 13.2H4.2C3.8688 13.2 3.6 13.4688 3.6 13.8V14.4H1.2V5.4C1.2 5.0688 1.4688 4.8 1.8 4.8ZM19.2 14.4V15.6H18V14.4H19.2ZM6 14.4V15.6H4.8V14.4H6ZM22.2 19.2H1.8C1.4688 19.2 1.2 18.9312 1.2 18.6V15.6H3.6V16.2C3.6 16.5312 3.8688 16.8 4.2 16.8H6.6C6.9312 16.8 7.2 16.5312 7.2 16.2V15.6H16.8V16.2C16.8 16.5312 17.0688 16.8 17.4 16.8H19.8C20.1312 16.8 20.4 16.5312 20.4 16.2V15.6H22.8V18.6C22.8 18.9312 22.5312 19.2 22.2 19.2Z" fill="black"/>
</svg>
