<svg width="64" height="26" viewBox="0 0 64 26" fill="none" xmlns="http://www.w3.org/2000/svg">
<path d="M57.1753 6.89212L57.1695 5.67951L57.1695 5.67951L57.1753 6.89212ZM57.3025 7.07326L56.1641 6.65554L56.1641 6.65554L57.3025 7.07326ZM51.8286 8.13049L57.1812 8.10472L57.1695 5.67951L51.817 5.70527L51.8286 8.13049ZM56.1641 6.65554L54.2269 11.9347L56.5037 12.7701L58.4409 7.49099L56.1641 6.65554ZM57.1812 8.10472C56.4296 8.10834 55.9052 7.36109 56.1641 6.65554L58.4409 7.49099C58.7645 6.60906 58.1089 5.67499 57.1695 5.67951L57.1812 8.10472Z" fill="#2175D9"/>
<rect x="54.4525" y="2.0578" width="2.29609" height="2.46972" rx="0.0673679" transform="rotate(-17.575 54.4525 2.0578)" fill="#2175D9" stroke="#2175D9" stroke-width="0.134736"/>
<rect x="60.8761" y="2.95471" width="2.29609" height="2.46972" rx="0.0673679" transform="rotate(55.5831 60.8761 2.95471)" fill="#2175D9" stroke="#2175D9" stroke-width="0.134736"/>
<path d="M62.3752 9.21346C62.4076 9.23377 62.4167 9.27706 62.395 9.30867L61.1764 11.0867C61.1554 11.1174 61.1135 11.1252 61.0828 11.1042L59.1335 9.76826C59.1077 9.75061 59.0975 9.71757 59.1087 9.68844L59.8618 7.73665C59.877 7.69717 59.9245 7.68135 59.9604 7.70378L62.3752 9.21346Z" fill="#2175D9" stroke="#2175D9" stroke-width="0.134736"/>
<path d="M6.48699 21.2038C8.51211 21.2038 10.1421 19.722 10.1421 16.7584V16.6267C10.1421 13.6796 8.51211 12.1648 6.50345 12.1648C5.20276 12.1648 4.31368 12.8563 3.81975 13.6796V8.60851H0.872615V21.0062H3.81975V19.6726C4.24782 20.5946 5.20276 21.2038 6.48699 21.2038ZM5.44973 18.9482C4.37954 18.9482 3.73743 18.2073 3.73743 16.7419V16.6102C3.73743 15.1614 4.37954 14.3875 5.44973 14.3875C6.48699 14.3875 7.14556 15.112 7.14556 16.6267V16.7584C7.14556 18.1743 6.55284 18.9482 5.44973 18.9482ZM11.8639 21.0062H14.811V16.923C14.811 15.54 15.7989 14.9802 17.5935 15.0296V12.2801C16.2599 12.2636 15.3544 12.8234 14.811 14.1076V12.3953H11.8639V21.0062ZM19.4002 21.0062H22.3474V12.3953H19.4002V21.0062ZM20.8656 11.5721C21.7876 11.5721 22.4956 10.93 22.4956 10.0574C22.4956 9.18476 21.7876 8.52619 20.8656 8.52619C19.9436 8.52619 19.2521 9.18476 19.2521 10.0574C19.2521 10.93 19.9436 11.5721 20.8656 11.5721ZM28.619 24.2003C31.6979 24.2003 33.3937 22.8502 33.3937 20.2818V12.3953H30.4466V13.6137C29.9527 12.7411 29.1459 12.1648 27.7794 12.1648C25.7542 12.1648 24.1242 13.7783 24.1242 16.3139V16.4456C24.1242 19.0964 25.7707 20.5782 27.7794 20.5782C29.0636 20.5782 30.002 19.8208 30.4466 18.9976V20.3147C30.4466 21.3849 29.9197 22.1258 28.619 22.1258C27.5488 22.1258 27.1702 21.6319 27.0385 21.0062H24.1078C24.3383 22.9655 25.6884 24.2003 28.619 24.2003ZM28.8166 18.4048C27.7629 18.4048 27.1372 17.6475 27.1372 16.462V16.3303C27.1372 15.1449 27.73 14.3711 28.8331 14.3711C29.9197 14.3711 30.5289 15.1284 30.5289 16.3139V16.4291C30.5289 17.6475 29.8703 18.4048 28.8166 18.4048ZM35.5444 21.0062H38.4915V16.1821C38.4915 15.079 39.0842 14.5522 39.9569 14.5522C40.813 14.5522 41.1917 15.0296 41.1917 16.001V21.0062H44.1388V15.4083C44.1388 13.2021 42.9863 12.1648 41.3234 12.1648C39.891 12.1648 38.9525 12.8893 38.4915 13.7783V8.60851H35.5444V21.0062ZM49.6548 21.2038C50.3463 21.2038 50.9061 21.0556 51.2848 20.9568V18.7177C51.0213 18.8165 50.7744 18.8658 50.4451 18.8658C49.8853 18.8658 49.5725 18.586 49.5725 17.9603V14.404H51.2683V12.3953H49.5725V10.6007H46.6253V12.3953H45.5881V14.404H46.6253V18.2402C46.6253 20.2653 47.712 21.2038 49.6548 21.2038Z" fill="#0F1941"/>
</svg>
