<svg width="18" height="22" viewBox="0 0 18 22" fill="none" xmlns="http://www.w3.org/2000/svg">
<path d="M15.0013 14.75H14.5013V14.9571L14.6477 15.1036L15.0013 14.75ZM1.71127 16.04L1.35772 15.6864L1.35772 15.6864L1.71127 16.04ZM3.00127 14.75L3.35483 15.1036L3.50127 14.9571V14.75H3.00127ZM7.50127 3.43L7.61655 3.91653L8.00127 3.82538V3.43H7.50127ZM10.5013 3.43H10.0013V3.82506L10.3856 3.91644L10.5013 3.43ZM11.0013 18.75H11.5013V18.25H11.0013V18.75ZM7.00127 18.75V18.25H6.50127V18.75H7.00127ZM15.5013 14.75V9.75H14.5013V14.75H15.5013ZM16.6448 15.6864L15.3548 14.3964L14.6477 15.1036L15.9377 16.3936L16.6448 15.6864ZM15.5813 18.25C16.9144 18.25 17.5914 16.6331 16.6448 15.6864L15.9377 16.3936C16.2511 16.7069 16.0281 17.25 15.5813 17.25V18.25ZM2.41127 18.25H15.5813V17.25H2.41127V18.25ZM1.35772 15.6864C0.418654 16.6255 1.06747 18.25 2.41127 18.25V17.25C1.97508 17.25 1.74389 16.7145 2.06483 16.3936L1.35772 15.6864ZM2.64772 14.3964L1.35772 15.6864L2.06483 16.3936L3.35483 15.1036L2.64772 14.3964ZM2.50127 9.75V14.75H3.50127V9.75H2.50127ZM7.386 2.94347C4.23909 3.68908 2.50127 6.49563 2.50127 9.75H3.50127C3.50127 6.84437 5.02346 4.53092 7.61655 3.91653L7.386 2.94347ZM7.00127 2.75V3.43H8.00127V2.75H7.00127ZM9.00127 0.75C7.89513 0.75 7.00127 1.64386 7.00127 2.75H8.00127C8.00127 2.19614 8.44741 1.75 9.00127 1.75V0.75ZM11.0013 2.75C11.0013 1.64386 10.1074 0.75 9.00127 0.75V1.75C9.55513 1.75 10.0013 2.19614 10.0013 2.75H11.0013ZM11.0013 3.43V2.75H10.0013V3.43H11.0013ZM15.5013 9.75C15.5013 6.50518 13.7532 3.68924 10.6169 2.94356L10.3856 3.91644C12.9694 4.53076 14.5013 6.85482 14.5013 9.75H15.5013ZM9.00127 21.25C10.3774 21.25 11.5013 20.1261 11.5013 18.75H10.5013C10.5013 19.5739 9.82513 20.25 9.00127 20.25V21.25ZM6.50127 18.75C6.50127 20.1245 7.6135 21.25 9.00127 21.25V20.25C8.16904 20.25 7.50127 19.5755 7.50127 18.75H6.50127ZM11.0013 18.25H7.00127V19.25H11.0013V18.25Z" fill="black"/>
</svg>
