<svg width="18" height="18" viewBox="0 0 18 18" fill="none" xmlns="http://www.w3.org/2000/svg">
<path d="M9 9.5C11.4861 9.5 13.5 7.48614 13.5 5H12.5C12.5 6.93386 10.9339 8.5 9 8.5V9.5ZM4.5 5C4.5 7.48614 6.51386 9.5 9 9.5V8.5C7.06614 8.5 5.5 6.93386 5.5 5H4.5ZM9 0.5C6.51386 0.5 4.5 2.51386 4.5 5H5.5C5.5 3.06614 7.06614 1.5 9 1.5V0.5ZM13.5 5C13.5 2.51386 11.4861 0.5 9 0.5V1.5C10.9339 1.5 12.5 3.06614 12.5 5H13.5ZM9 10.5C7.6025 10.5 5.53929 10.8467 3.81281 11.5384C2.94917 11.8843 2.13835 12.3289 1.53542 12.8854C0.929088 13.445 0.5 14.1514 0.5 15H1.5C1.5 14.5186 1.73716 14.06 2.21364 13.6202C2.69352 13.1773 3.38208 12.7882 4.18469 12.4666C5.79071 11.8233 7.7275 11.5 9 11.5V10.5ZM17.5 15C17.5 14.1514 17.0709 13.445 16.4646 12.8854C15.8616 12.3289 15.0508 11.8843 14.1872 11.5384C12.4607 10.8467 10.3975 10.5 9 10.5V11.5C10.2725 11.5 12.2093 11.8233 13.8153 12.4666C14.6179 12.7882 15.3065 13.1773 15.7864 13.6202C16.2628 14.06 16.5 14.5186 16.5 15H17.5ZM17.5 16V15H16.5V16H17.5ZM16 17.5C16.8261 17.5 17.5 16.8261 17.5 16H16.5C16.5 16.2739 16.2739 16.5 16 16.5V17.5ZM2 17.5H16V16.5H2V17.5ZM0.5 16C0.5 16.8261 1.17386 17.5 2 17.5V16.5C1.72614 16.5 1.5 16.2739 1.5 16H0.5ZM0.5 15V16H1.5V15H0.5Z" fill="black"/>
</svg>
