<svg width="28" height="28" viewBox="0 0 28 28" fill="none" xmlns="http://www.w3.org/2000/svg">
<path d="M15.95 10.5582C15.8285 10.4364 15.6637 10.368 15.4917 10.368C15.3198 10.368 15.1549 10.4364 15.0335 10.5582L12.05 13.5417C11.7965 13.7952 11.7965 14.2047 12.05 14.4582L15.0335 17.4417C15.287 17.6952 15.6965 17.6952 15.95 17.4417C16.2035 17.1882 16.2035 16.7787 15.95 16.5252L13.428 13.9967L15.95 11.4747C16.2035 11.2212 16.197 10.8052 15.95 10.5582Z" fill="black"/>
<path d="M14 26.5C7.09644 26.5 1.5 20.9036 1.5 14H0.5C0.5 21.4558 6.54416 27.5 14 27.5V26.5ZM26.5 14C26.5 20.9036 20.9036 26.5 14 26.5V27.5C21.4558 27.5 27.5 21.4558 27.5 14H26.5ZM14 1.5C20.9036 1.5 26.5 7.09644 26.5 14H27.5C27.5 6.54416 21.4558 0.5 14 0.5V1.5ZM14 0.5C6.54416 0.5 0.5 6.54416 0.5 14H1.5C1.5 7.09644 7.09644 1.5 14 1.5V0.5Z" fill="#0F1941"/>
</svg>
