<svg width="20" height="18" viewBox="0 0 20 18" fill="none" xmlns="http://www.w3.org/2000/svg">
<path opacity="0.5" d="M18.5 1H16V0.5C16 0.224 15.776 0 15.5 0C15.224 0 15 0.224 15 0.5V1H5V0.5C5 0.224 4.776 0 4.5 0C4.224 0 4 0.224 4 0.5V1H1.5C0.673 1 0 1.673 0 2.5V16.5C0 17.327 0.673 18 1.5 18H18.5C19.327 18 20 17.327 20 16.5V2.5C20 1.673 19.327 1 18.5 1ZM1.5 2H4V3.5C4 3.776 4.224 4 4.5 4C4.776 4 5 3.776 5 3.5V2H15V3.5C15 3.776 15.224 4 15.5 4C15.776 4 16 3.776 16 3.5V2H18.5C18.776 2 19 2.224 19 2.5V5H1V2.5C1 2.224 1.224 2 1.5 2ZM18.5 17H1.5C1.224 17 1 16.776 1 16.5V6H19V16.5C19 16.776 18.776 17 18.5 17Z" fill="#2175D9"/>
</svg>
