<svg width="21" height="18" viewBox="0 0 21 18" fill="none" xmlns="http://www.w3.org/2000/svg">
<path opacity="0.5" d="M18.9353 3.07059H14.3294V1.53529C14.3294 0.688835 13.6406 0 12.7941 0H7.67647C6.83001 0 6.14118 0.688835 6.14118 1.53529V3.07059H1.53529C0.688835 3.07059 0 3.75942 0 4.60588V15.8647C0 16.7112 0.688835 17.4 1.53529 17.4H18.9353C19.7818 17.4 20.4706 16.7112 20.4706 15.8647V4.60588C20.4706 3.75942 19.7818 3.07059 18.9353 3.07059ZM7.16471 1.53529C7.16471 1.2528 7.39398 1.02353 7.67647 1.02353H12.7941C13.0766 1.02353 13.3059 1.2528 13.3059 1.53529V3.07059H7.16471V1.53529ZM1.53529 4.09412H18.9353C19.2178 4.09412 19.4471 4.32339 19.4471 4.60588V12.2824H17.4V11.7706C17.4 11.4881 17.1707 11.2588 16.8882 11.2588H14.8412C14.5587 11.2588 14.3294 11.4881 14.3294 11.7706V12.2824H6.14118V11.7706C6.14118 11.4881 5.91191 11.2588 5.62941 11.2588H3.58235C3.29986 11.2588 3.07059 11.4881 3.07059 11.7706V12.2824H1.02353V4.60588C1.02353 4.32339 1.2528 4.09412 1.53529 4.09412ZM16.3765 12.2824V13.3059H15.3529V12.2824H16.3765ZM5.11765 12.2824V13.3059H4.09412V12.2824H5.11765ZM18.9353 16.3765H1.53529C1.2528 16.3765 1.02353 16.1472 1.02353 15.8647V13.3059H3.07059V13.8176C3.07059 14.1001 3.29986 14.3294 3.58235 14.3294H5.62941C5.91191 14.3294 6.14118 14.1001 6.14118 13.8176V13.3059H14.3294V13.8176C14.3294 14.1001 14.5587 14.3294 14.8412 14.3294H16.8882C17.1707 14.3294 17.4 14.1001 17.4 13.8176V13.3059H19.4471V15.8647C19.4471 16.1472 19.2178 16.3765 18.9353 16.3765Z" fill="#2175D9"/>
</svg>
