<svg width="15" height="17" viewBox="0 0 15 17" fill="none" xmlns="http://www.w3.org/2000/svg">
<path opacity="0.5" d="M7.5 1C9.8981 1 11.8421 2.94403 11.8421 5.3421V7.413C11.8421 8.239 12.1609 9.0331 12.7319 9.6299L13.8367 10.7843C14.2741 11.2415 13.9501 12 13.3174 12H7.5" stroke="#2175D9"/>
<path opacity="0.5" d="M7.49997 1C5.10187 1 3.15786 2.94403 3.15786 5.3421V7.413C3.15786 8.239 2.83911 9.0331 2.26804 9.6299L1.16329 10.7843C0.725831 11.2415 1.04984 12 1.68258 12H7.49997" stroke="#2175D9"/>
<path opacity="0.5" d="M9 15C9 15.5523 8.3284 16 7.5 16C6.6716 16 6 15.5523 6 15" stroke="#2175D9" stroke-linecap="round"/>
</svg>
