<svg width="13" height="17" viewBox="0 0 13 17" fill="none" xmlns="http://www.w3.org/2000/svg">
<path d="M12.5 17C12.357 17 12.217 16.9445 12.12 16.8434L6.5 10.9766L0.88 16.8434C0.744 16.9857 0.523 17.0367 0.327 16.9723C0.131 16.9078 0 16.7396 0 16.5526V0.447368C0 0.200421 0.224 0 0.5 0H12.5C12.776 0 13 0.200421 13 0.447368V16.5526C13 16.7396 12.87 16.9069 12.673 16.9723C12.616 16.9911 12.558 17 12.5 17ZM6.5 9.84211C6.646 9.84211 6.785 9.89937 6.88 9.99868L12 15.3438V0.895632H1V15.3438L6.12 9.99868C6.215 9.89937 6.354 9.84211 6.5 9.84211Z" fill="#0F1941"/>
</svg>
