<svg width="7" height="13" viewBox="0 0 7 13" fill="none" xmlns="http://www.w3.org/2000/svg">
<path d="M3.49942 12.3333C3.41017 12.3333 3.32558 12.2925 3.27017 12.2219C3.23692 12.1793 2.443 11.1637 1.63858 9.66396C1.16492 8.78138 0.786917 7.91454 0.515667 7.08796C0.17325 6.04554 0 5.06263 0 4.16663C0 2.23696 1.57033 0.666626 3.5 0.666626C5.42967 0.666626 7 2.23696 7 4.16663C7 5.06263 6.82617 6.04496 6.48433 7.08796C6.21308 7.91454 5.83508 8.78138 5.36142 9.66396C4.55642 11.1637 3.76308 12.1793 3.72983 12.2219C3.67442 12.2925 3.58983 12.3333 3.50058 12.3333H3.49942ZM3.49942 2.85413C2.625 2.85413 2.1525 2.55838 2.1525 4.16663C2.1525 6.06479 2.625 5.47913 2.625 5.47913C3.27017 5.68708 3.20775 5.51063 3.49942 5.91663C3.79225 5.50888 4.375 5.47913 4.375 5.47913C5.08842 4.14738 4.85158 6.06129 4.85158 4.16663C4.85158 2.55838 4.37383 2.85413 3.49942 2.85413Z" fill="#0F1941"/>
<path d="M3.49951 5.91663C2.53468 5.91663 1.74951 5.13146 1.74951 4.16663C1.74951 3.20179 2.53468 2.41663 3.49951 2.41663C4.46435 2.41663 5.24951 3.20179 5.24951 4.16663C5.24951 5.13146 4.46435 5.91663 3.49951 5.91663ZM3.49951 2.99996C2.8561 2.99996 2.33285 3.52321 2.33285 4.16663C2.33285 4.81004 2.8561 5.33329 3.49951 5.33329C4.14293 5.33329 4.66618 4.81004 4.66618 4.16663C4.66618 3.52321 4.14293 2.99996 3.49951 2.99996Z" fill="#0F1941"/>
</svg>
